<svg width="560.5" height="87.9" xmlns="http://www.w3.org/2000/svg">
 <style type="text/css">.st0 { fill: #0088f5; }
  <!-- .st0 { fill: currentColor; } --></style>

 <g>
  <title>background</title>
  <rect fill="none" id="canvas_background" height="402" width="582" y="-1" x="-1"/>
 </g>
 <g>
  <title>Layer 1</title>
  <path id="svg_7" d="m48.6,81.4l-4.3,4.3c-0.5,0.5 -1.1,0.8 -1.8,0.8s-1.4,-0.3 -2,-0.8l-39.6,-39.7c-0.6,-0.6 -0.9,-1.3 -0.9,-2s0.3,-1.4 0.9,-2l39.6,-39.6c0.5,-0.6 1.2,-0.9 2,-0.9s1.4,0.3 1.8,0.9l4.3,4.3c0.6,0.5 0.9,1.2 0.9,2s-0.3,1.4 -0.9,1.8l-33.4,33.5l33.4,33.4c0.6,0.6 0.9,1.3 0.9,2c0,0.7 -0.3,1.4 -0.9,2z" class="st0"/>
  <path id="svg_8" d="m113.7,3.7l-35.7,82.7c-0.2,0.5 -0.7,1 -1.5,1.3s-1.5,0.3 -2.2,0.1l-5.8,-1c-0.9,-0.2 -1.5,-0.6 -1.9,-1c-0.3,-0.5 -0.5,-1 -0.3,-1.6l35.7,-82.5c0.3,-0.6 0.9,-1 1.5,-1.3c0.7,-0.2 1.4,-0.3 2.2,-0.2l6,1.1c0.8,0.2 1.4,0.5 1.9,1c0.4,0.4 0.5,0.9 0.1,1.4z" class="st0"/>
  <path id="svg_9" d="m173.4,46l-39.6,39.6c-0.6,0.5 -1.3,0.8 -2,0.8s-1.4,-0.3 -2,-0.8l-4.3,-4.3c-0.5,-0.6 -0.8,-1.3 -0.8,-2s0.3,-1.4 0.8,-2l33.4,-33.3l-33.4,-33.5c-0.5,-0.5 -0.8,-1.1 -0.8,-1.8s0.3,-1.4 0.8,-2l4.3,-4.3c0.6,-0.6 1.3,-0.9 2,-0.9s1.4,0.3 2,0.9l39.6,39.6c0.5,0.5 0.8,1.2 0.8,2s-0.3,1.5 -0.8,2z" class="st0"/>
  <path d="m232.75,12.059372c0,1 0.38269,1.07612 0,2c-0.541199,1.306563 -2,3 -2,3c-1,1 -2,2 -2,3c0,1 0,1 0,2c0,1 0,2 0,3c0,1 -0.38269,2.07612 0,3c0.541199,1.306562 1.458801,1.693438 2,3c0.765366,1.847759 0.458801,2.693436 1,4c0.38269,0.923878 0.61731,2.076122 1,3c0.541199,1.306564 1.61731,3.076122 2,4c0.541199,1.306564 1.458801,0.693436 2,2c0.38269,0.923878 0,1 1,2l0,0l0,0" id="svg_10" fill-opacity="null" stroke-opacity="null" stroke-width="null" stroke="null" fill="none"/>
  <text transform="matrix(0.9011035707089938,0,0,1,57.11030641718359,0) " font-style="normal" font-weight="normal" xml:space="preserve" text-anchor="start" font-family="Helvetica, Arial, sans-serif" font-size="103" id="svg_13" y="81.059372" x="141.484061" stroke-width="0" fill="#0088ff">PEYTON</text>
 </g>
</svg>